<svg id="Layer_1" data-name="Layer 1" xmlns="http://www.w3.org/2000/svg" viewBox="0 0 778.47 417.95"><defs><style>.cls-1{fill:#232222;}.cls-2{fill:#e70095;}.cls-3{fill:#fff;}.cls-4{fill:#f128c1;}.cls-5{fill:#3fbfad;}.cls-6{fill:#2b2527;}</style></defs><title>big-poppa-logo</title><path class="cls-1" d="M803.84,395.45c-1.05-2.92-3.07-4.12-6.05-3.53a.3.3,0,0,0-.31.18c.09-.07.27,0,.52.1s.62.48.81,1.19c.87,3.25.46,7.32-1.35,12.11a31.42,31.42,0,0,1-2.73,6.11c-2.09,3-3.78,4.54-5.14,4.49-.45.06-.73,0-.8-.15a6.62,6.62,0,0,1-.94-1.84c-1.3-3.48-1-7.56,1-12.35,2.46-6,5.73-9.83,9.76-11.49a.77.77,0,0,1,.83.16,1.28,1.28,0,0,0,1,.06.73.73,0,0,0,.15-1c-2.41-2.89-4.61-4.06-6.87-3.66a11.93,11.93,0,0,0-6.43,4,28.51,28.51,0,0,0-3.67,5.55,21.94,21.94,0,0,0-2.43,11.53,15,15,0,0,0,1.11,5c1.38,3.16,3.48,5.1,6.24,5.74.57.52,1.65.71,3.18.69,5.83-.78,9.84-5.36,12.14-13.65,1.13-4.08,1.13-7.22,0-9.24" transform="translate(-26.21 -22.9)"/><path class="cls-1" d="M782.26,393a1.18,1.18,0,0,0-.6-.62,46.34,46.34,0,0,0-5.2-3.56,3.21,3.21,0,0,0-1.6-.35,2.06,2.06,0,0,0-1,.5c-6.84,4.08-11.63,6.35-14.25,6.84a5.26,5.26,0,0,1-3.19.25c-.35-.16-.52-.16-.65,0-.16,0-.19.21-.09.39a1.36,1.36,0,0,0,.56.89,11.91,11.91,0,0,0,3.4,3.13,4.3,4.3,0,0,0,3.08.86,3.31,3.31,0,0,0,1.72-.71,66.74,66.74,0,0,0,10-7.93c-3.16,5-6.33,10-9.55,15-5.64,8.74-11.24,13.32-16.77,13.83-2,.16-3.51-1-4.45-3.56a13.39,13.39,0,0,1-.83-3.84,38.78,38.78,0,0,1,4.61-18c4.73-8.62,10.78-14.83,18.06-18.73-.95,1.75-2.21,4.26-3.71,7.73a1.39,1.39,0,0,0,0,.83,1.43,1.43,0,0,0,.43.49.64.64,0,0,0,.56.19,1.1,1.1,0,0,0,.8-.79,64.26,64.26,0,0,1,9-7.33c.8-.81,1-1.32.8-1.54a5.8,5.8,0,0,0-2.49-3,21.77,21.77,0,0,0-6.7-5.11,3.1,3.1,0,0,0-2-.46,2.45,2.45,0,0,0-1.66.86A73,73,0,0,0,749,379.39a51.77,51.77,0,0,0-9,13.29c-3.94,9-4.89,16.23-2.89,21.75a7.7,7.7,0,0,0,.82,1.72q1.71,3.68,6.6,6.57a13.09,13.09,0,0,0,8.6,3c5.86-1.11,10.6-5.87,14.13-14.32.09,0,.09.06.12.06-.18,1.44-.37,2.89-.56,4.28a14,14,0,0,0,.81,6.73,3.29,3.29,0,0,0,.4.88c.64,1.44,1.44,2.12,2.46,2.08.46-.15.59-.6.16-1.49a21.62,21.62,0,0,1,.18-5.72c.39-3.54,2-7.55,4.7-12,1.36-2.16,2.71-4.24,4-6.36q3.33-5.59,2.83-6.88" transform="translate(-26.21 -22.9)"/><path class="cls-1" d="M710.14,396.8a23.68,23.68,0,0,0-8.38,3.08,9.53,9.53,0,0,1-4.45,1.07,2.84,2.84,0,0,1-1.67-.56.27.27,0,0,0-.4,0c-.06,0,0,.12,0,.24a.94.94,0,0,0,.24.24,18.67,18.67,0,0,0,3.81,3.38,6.78,6.78,0,0,0,4.06,1.17,3.15,3.15,0,0,0,1-.19c.07,0,.12,0,.19,0v.07a27.57,27.57,0,0,1-2,10.56Q698,426.66,685.6,427.46a16.9,16.9,0,0,1-7-.82c-2.67-1-4.27-2.56-4.76-4.83-1.5-6.12,3.63-12.23,15.27-18.77,3.84,1.75,6.11,4,6.6,6.6s-1,4.33-4.89,4.74c-.85.09-1.29.33-1.13.8.61.86,2.42,1.19,5.49.92,4.79-.89,6.42-3.29,5.11-7.06-1.08-3-4.09-5.38-9-7.31a44.5,44.5,0,0,0,6.4-4.52c3.31-2.55,4.57-4.9,3.81-6.91a7.27,7.27,0,0,0-6.31-4.55c-.47,0-.65.1-.58.28s.16.31.43.5a.92.92,0,0,1,.52.56,4.78,4.78,0,0,1-2.08,5.71,35.14,35.14,0,0,1-7.75,5.46,2.7,2.7,0,0,1-1.07-1.75c.26-4.88,4.23-9.13,11.75-12.86.47-.31.65-.64.5-1a.8.8,0,0,0-.41-.45c-2.35-2.53-4.54-3.67-6.63-3.45a6.55,6.55,0,0,0-3.65,1.35c-7.34,5.37-10.17,10-8.42,13.82a14,14,0,0,0,5.53,5.53,53.16,53.16,0,0,0-5.69,2.91,42.26,42.26,0,0,0-5.53,3.93c-5.46,5.13-7.35,9.89-5.53,14.38a12.83,12.83,0,0,0,3.85,5.13c4.11,3.57,9.64,5.11,16.46,4.74a26.76,26.76,0,0,0,12.09-3.72c7.66-4.61,10.45-12.22,8.37-22.64v-.12a12.72,12.72,0,0,0,3-2.18,7.53,7.53,0,0,1,4-2.24,6.45,6.45,0,0,1,1.51.39,3.31,3.31,0,0,0,1.16.2c.2-.13.31-.29.28-.44-1.47-2.47-3.84-3.41-7.19-3" transform="translate(-26.21 -22.9)"/><path class="cls-1" d="M560.91,401.13a1.56,1.56,0,0,0-.64-.7,63.46,63.46,0,0,0-5.47-4.15,2.68,2.68,0,0,0-1.69-.6,1.4,1.4,0,0,0-1,.21c-7.43,2.69-12.55,4-15.34,4a5.4,5.4,0,0,1-3.41-.41c-.31-.15-.52-.17-.65,0s-.25.15-.15.36a1.85,1.85,0,0,0,.62.95,17.21,17.21,0,0,0,3.49,3.54,6.42,6.42,0,0,0,3.28,1.35,4.11,4.11,0,0,0,1.89-.37,59.35,59.35,0,0,0,10.75-5.71c-3.44,4.14-7,8.23-10.44,12.41q-9.4,10.73-18.2,10c-2.18-.18-3.75-1.54-4.64-4.12a17.58,17.58,0,0,1-.86-3.75c.37-6.37,2.15-11.71,5.35-16,5.3-7.29,11.82-12.08,19.65-14.5-1.07,1.48-2.44,3.66-4.14,6.58a.89.89,0,0,0,.06.79,1.13,1.13,0,0,0,.38.58c.17.15.47.31.6.25a.81.81,0,0,0,.89-.6A49.38,49.38,0,0,1,551,386c.83-.64,1-1.08.83-1.35a6.89,6.89,0,0,0-2.51-3.29,31,31,0,0,0-7-5.89,4.39,4.39,0,0,0-2.11-.79,1.9,1.9,0,0,0-1.76.54,60.4,60.4,0,0,0-12.56,7.44,38,38,0,0,0-9.92,10.93c-4.39,7.74-5.59,14.34-3.56,19.87a9.91,9.91,0,0,0,.83,1.74c1.14,2.51,3.41,4.88,6.82,7.3a17.88,17.88,0,0,0,9.12,4.33c6.29-.06,11.4-3.69,15.42-10.93,0,0,0,0,.1.06-.25,1.31-.5,2.58-.75,3.87a11.94,11.94,0,0,0,.68,6.4,5.14,5.14,0,0,0,.45,1,3.35,3.35,0,0,0,2.5,2.34c.52,0,.64-.49.25-1.35a18.65,18.65,0,0,1,.28-5.35c.49-3.26,2.31-6.69,5.34-10.44,1.51-1.78,2.93-3.48,4.36-5.26,2.4-3.1,3.44-5.07,3.13-6" transform="translate(-26.21 -22.9)"/><path class="cls-1" d="M438.22,411.58c0,.06,0,.06-.15-.07a4.15,4.15,0,0,1-.5-1,13.75,13.75,0,0,1,.12-8.91c1.88-6.09,6.21-9.5,12.94-10.35a2.88,2.88,0,0,1,.37,1.41c0,3.5-4.27,9.74-12.78,19m-93.54-25.8a14,14,0,0,1-4.21,6.42,5.18,5.18,0,0,1-3,.89,3.3,3.3,0,0,1-1.87-.5c1.32-3,4.39-5.26,9.09-6.81m140,10.66a12.24,12.24,0,0,1-4.42,5.89,5.88,5.88,0,0,1-3.1.64,4.87,4.87,0,0,1-1.94-.73c1.42-2.75,4.58-4.7,9.46-5.81m9.53,6.25a.91.91,0,0,0-1.05.38c-2.51,3.2-4.18,5.24-5,6.37a52.63,52.63,0,0,1-6,5.15c-2.11,1.41-3.9,2-5.34,1.84a2.53,2.53,0,0,1-1-.43c-1.38-.67-2.27-2-2.92-3.93a9.78,9.78,0,0,1-.19-4.54,12.4,12.4,0,0,1,2.07-4.84c2.16,1.73,3.9,2.81,5.17,3,2.55.28,4.83-.83,6.92-3.29a8.75,8.75,0,0,0,2.22-4.45,1.89,1.89,0,0,0-.61-1.63,5.34,5.34,0,0,0-1.44-1,24.58,24.58,0,0,0-6.73-5.49,1.8,1.8,0,0,0-1.07-.43q-7.06,1.89-10.57,6.94a18.76,18.76,0,0,0-2,3.93c-.61.86-1.21,1.79-1.88,2.71a53.17,53.17,0,0,1-8.91,10.19.69.69,0,0,1-.52.16c-.68-2.67-.12-6.37,1.66-10.82a97,97,0,0,1,4.7-9.77c1.38-2.65,2.49-4.77,3.28-6.46.45-.89.83-1.66,1.11-2.3a54.77,54.77,0,0,0,2.22-5.07,3.44,3.44,0,0,0-.22-2.64,11.36,11.36,0,0,0-3.88-4.33,29.08,29.08,0,0,0-5.55-3.2.09.09,0,0,0-.08-.06c-.48-.07-.63,0-.59.34a3.76,3.76,0,0,1,1.08,2.09c.59,2,.25,4.57-.92,7.8-1.36,3.76-3,7.92-4.79,12.57a7.06,7.06,0,0,0-.44.73c-.07-.31-.55-.77-1.47-1.38a9.9,9.9,0,0,0-3.59-3.59c-2.23-1.48-3.57-2.1-4.19-2l-1.13.42a16.36,16.36,0,0,0-9.81,7.38,22.56,22.56,0,0,0-2.36,6.57c-2.14,3-3.19,4.52-3.26,4.55a47.37,47.37,0,0,1-5,5.62c-.22,0-.31-.15-.27-.39-.09-2.77,1.41-7,4.49-12.88a.75.75,0,0,0,0-.88c-.15-.49-.67-1-1.66-1.6-1.35-.83-2.73-1.66-4.09-2.55-.83-.49-1.47-.56-1.76-.07-4.32,5.53-8.65,11.12-12.94,16.8-.1.1-.16.1-.29,0-1.81-5.71-.76-10.5,3.25-14.31a21.72,21.72,0,0,1,9.41-5.5,2.27,2.27,0,0,1,.64,0,3.28,3.28,0,0,1,.58.34c.45.43,1,.82,1.45,1.24a1.12,1.12,0,0,0,.79.41c.12-.12.12-.21.06-.41a3.35,3.35,0,0,0-.71-1.32c-2.79-3.29-5.44-5.51-8-6.67-.31-.11-.46-.14-.55-.09a.4.4,0,0,0-.31.26.43.43,0,0,1-.34.16c-5,2-8.58,4.62-10.57,7.94a19.26,19.26,0,0,0-2.85,7.13c-1.06,1.69-2.47,3.59-4.09,5.83-2.61,3.59-4.58,5.19-5.75,4.91-.86-1.5-.36-4,1.47-7.59,2.74-5.43,4.73-9,5.93-11.14a1.79,1.79,0,0,0,.16-1.81,2.91,2.91,0,0,0-1-1.35,37.86,37.86,0,0,0-4.09-3.22,2.61,2.61,0,0,0-1.26-.5.56.56,0,0,0-.52.38q-2.71,2.57-10.75,13.27a.33.33,0,0,0-.19,0c1.16-2.73,2.43-5.35,3.6-8,.45-.74.12-1.63-.77-2.61a29.64,29.64,0,0,0-5.1-4.06,1.86,1.86,0,0,0-.86-.24,1.22,1.22,0,0,0-1.17.89c-3.41,4.49-6.79,8.94-10.16,13.46,0,0-.07,0-.19,0,1.29-3.26,2.58-6.48,3.84-9.74a2.34,2.34,0,0,0-.06-1.08,2.81,2.81,0,0,0-1.14-1.18,47.25,47.25,0,0,0-5.57-3.33,1.73,1.73,0,0,0-.64-.2.74.74,0,0,0-.59.39c-3.19,5.22-5.68,9.46-7.56,12.63-1.9,2.88-3.29,4.81-3.92,5.86a71.47,71.47,0,0,1-5.75,5.83c-2.06,1.66-3.79,2.5-5.16,2.43-1.82-.34-3.05-1.72-3.7-4.06-.92-3.14-.4-6.48,1.57-10,2.13,1.63,3.81,2.49,5,2.61,2.51.06,4.73-1.29,6.67-4,1.35-1.94,2.06-3.51,2.09-4.79a1.85,1.85,0,0,0-.59-1.63,3.78,3.78,0,0,0-1.38-.89,22.8,22.8,0,0,0-6.6-5.13c-.53-.27-.86-.39-1.05-.34a18.75,18.75,0,0,0-12,12.57,13.23,13.23,0,0,0-.59,2.76c-1.12,1.79-2.51,4-4.29,6.6-2.51,3.76-4.43,5.53-5.62,5.35-.83-1.54-.39-4.14,1.45-7.92,2.64-5.56,4.51-9.43,5.71-11.61a2.1,2.1,0,0,0,.19-1.88,3,3,0,0,0-1.07-1.32,32.51,32.51,0,0,0-4-3.08,3.46,3.46,0,0,0-1.3-.42.44.44,0,0,0-.48.39c-1.78,1.89-5.23,6.55-10.47,14.14-.07,0-.13,0-.15-.1,1.14-2.79,2.3-5.56,3.46-8.36.37-.79.12-1.61-.8-2.6a22.17,22.17,0,0,0-5-3.84,2.19,2.19,0,0,0-.83-.25c-.52,0-.86.31-1.14,1-3.32,4.73-6.6,9.46-9.86,14.29-.07-.06-.1-.06-.16-.12,1.24-3.37,2.43-6.7,3.66-10.08a2,2,0,0,0-.06-1,2.34,2.34,0,0,0-1.11-1.23,47.11,47.11,0,0,0-5.5-3.07,2,2,0,0,0-.59-.12.79.79,0,0,0-.61.36c-4.11,7.46-7.07,12.93-8.85,16.58-.24.4-.12.78.37,1,.23,0,.4.19.53.15s.4-.15.59-.3a60.37,60.37,0,0,1,3.18-5.75c1-1.6,1.94-3.13,2.9-4.72.09,0,.09.05.12.12-1.48,4.51-3,9.16-4.42,13.75-.9,2.59-1,4.33-.37,5.2a10.62,10.62,0,0,0,3.38,4.24c.92.76,1.56,1,1.93,1a10.27,10.27,0,0,0,.18-3.57c2.3-4.82,6.49-11.48,12.59-19.88-1.39,5.2-2.83,10.44-4.23,15.67a4.83,4.83,0,0,0,.15,2.61,5.57,5.57,0,0,0,1.26,1.66c.84.64,1.63,1.28,2.43,2A4.35,4.35,0,0,0,302,410c.53-.09.59-.53.15-1.14a2.24,2.24,0,0,1-.06-1.71c.59-2.18,4.4-8.3,11.47-18.22a2.54,2.54,0,0,1,.24.12c-.74,1.75-1.6,3.54-2.34,5.32-1.3,3.17-1.45,5.78-.46,7.75a7.92,7.92,0,0,0,2.58,3.78c1,.76,2,1.62,3.07,2.41a5.84,5.84,0,0,0,4,1.61c1.26,0,2.11-.86,2.55-2.62,1.25-2.83,2.48-5.68,3.78-8.51a10.94,10.94,0,0,0,.68,2.19,9.63,9.63,0,0,0,3.15,4.14,40.53,40.53,0,0,0,4.86,3,15.35,15.35,0,0,0,6.21,2,3.59,3.59,0,0,0,2.26-.66c1.52-1.09,3.45-3.83,5.9-8.08a63,63,0,0,0,3.57-7.09c.67-1.14,1.29-2,1.75-2.71,1-1.47,2-2.95,3-4.45,0,0,0,.06.07.06-1.51,4.43-3.07,8.85-4.57,13.3-.93,2.43-1,4.16-.47,5a12.38,12.38,0,0,0,3.44,4.4c1,.74,1.57,1.07,2,1a12.85,12.85,0,0,0,.27-3.5c2.31-4.61,6.64-10.91,12.94-18.81-1.49,5-2.95,10.07-4.42,15.15a3.82,3.82,0,0,0,.15,2.52,4.37,4.37,0,0,0,1.3,1.72c.79.68,1.59,1.32,2.45,2.07a4.76,4.76,0,0,0,2.12.94c.52-.06.58-.46.14-1.13a2,2,0,0,1,0-1.7c.57-2.09,4.48-7.83,11.82-17.2.09.06.11.13.17.13-.73,1.71-1.62,3.4-2.37,5.06-1.36,3.08-1.53,5.62-.58,7.59a8.9,8.9,0,0,0,2.61,3.83c1.05.9,2.12,1.73,3.19,2.59a6.61,6.61,0,0,0,4,1.78c1.25.09,2.11-.77,2.67-2.43,1.17-2.53,2.36-5,3.57-7.56a14.42,14.42,0,0,0,.86,2.58c.95,2.12,3.75,4.45,8.36,7.13a3.27,3.27,0,0,0,1.78.42c.43-.12.77-.51,1-1.26.18-.55.34-1.07.48-1.68,2.36-5.25,4.33-9.29,5.75-11.87a.25.25,0,0,1,.22,0,20.13,20.13,0,0,0-1.27,4.77,10.34,10.34,0,0,0,4.76,10.59,7.62,7.62,0,0,0,1.44.86,4.38,4.38,0,0,0,1.91.54,1.83,1.83,0,0,0,2.16-.93c1.77-3.84,3.22-6.88,4.23-9.15a23.32,23.32,0,0,0,.83,3.08,10.44,10.44,0,0,0,3.59,4.73,47.15,47.15,0,0,0,5.72,3.3,17.9,17.9,0,0,0,1.74.58,1,1,0,0,0,.86-.49c.28-.73.52-1.41.77-2.11.64-1.42,2.18-4.73,4.61-9.9a.93.93,0,0,0,.27.22c-.09.09,0,.15-.12.24-.7,1.57-.56,3.65.34,6.27a5.58,5.58,0,0,0,2.1,2.95,33.9,33.9,0,0,0,4.36,3.2,6,6,0,0,0,2.45,1.13,2.05,2.05,0,0,0,2.17-.59c.13,0,.13-.09.13-.21.8-1.32,1.5-2.64,2.11-3.91,1.14-2.38,2.31-4.72,3.48-7.06a14.42,14.42,0,0,0,.93,4,11,11,0,0,0,3.29,4.34,30.87,30.87,0,0,0,4.91,3.31l1.57.9a17.67,17.67,0,0,0,4.91,1.79,4.74,4.74,0,0,0,2.34-.41c1.56-1,3.66-3.44,6.16-7.37a56.18,56.18,0,0,0,4.56-8.33.64.64,0,0,0,.09-.49c0-.21-.15-.36-.45-.53" transform="translate(-26.21 -22.9)"/><path class="cls-1" d="M633.15,414.81c-2.94,8-6.29,11.73-10.09,11a5.61,5.61,0,0,1-1.67-3.19c-.71-2.43-.14-5.32,1.39-8.6q4.5-9.55,11.54-13.83c1.11,4.36.67,9.28-1.17,14.63m6.31-15.12a18.73,18.73,0,0,0-4.25-1.66,2.77,2.77,0,0,0-2.4.12,18.27,18.27,0,0,0-5.62,4.24c-.05,0-.05,0-.09,0,1.17-2.67,3.56-7.49,7-14.61a3.89,3.89,0,0,0,.1-3.87,8.45,8.45,0,0,0-4.37-4.37,17.28,17.28,0,0,0-4.08-1.68c-.34-.07-.52-.07-.52,0l-.09,0c0,.09,0,.18.09.34a2.32,2.32,0,0,1,.74.74,2.43,2.43,0,0,1,.25,1.35c.06,1.41-.8,4.82-2.62,10-1.62,4.57-3.2,8.66-4.58,12.23-1.9,4.94-3.07,7.83-3.34,8.69a14,14,0,0,0-.47,1.79c-2.12,3.28-3.2,4.94-3.2,5a43.33,43.33,0,0,1-4.89,6c-.13,0-.26-.12-.23-.36-.1-2.8,1.29-7.29,4.23-13.46a1.17,1.17,0,0,0,.1-.95,3.21,3.21,0,0,0-1.67-1.52c-1.35-.73-2.67-1.52-4-2.26-.86-.49-1.44-.53-1.79,0-4.11,6-8.35,11.85-12.55,17.73-.06.12-.15.12-.25,0-1.88-5.67-.76-10.54,3.11-14.62a23.26,23.26,0,0,1,9.18-6.19,1.47,1.47,0,0,1,.61,0,2.21,2.21,0,0,1,.65.33c.39.38.89.75,1.36,1.15a1,1,0,0,0,.79.34.43.43,0,0,0,0-.43,2.55,2.55,0,0,0-.67-1.29c-2.76-3.23-5.37-5.28-7.87-6.26a2.06,2.06,0,0,0-.62-.13.76.76,0,0,0-.22.31c-.12.15-.15.21-.29.21-5,2.27-8.42,5.16-10.42,8.6a22.57,22.57,0,0,0-2.4,5.74c-.95,1.44-2,2.89-3.1,4.43a68.45,68.45,0,0,1-5.44,6.78,4.19,4.19,0,0,1-2,1.26c-.66-1.85.19-5.06,2.55-9.82,2.55-5,4.14-7.9,4.66-8.82a2.3,2.3,0,0,0,.31-1.39c-.43-1.63-2.73-3.42-7-5.28a5.94,5.94,0,0,0-2.58-.43c-1,.18-2,.34-3,.51a.93.93,0,0,1-.34-.34c.21-.64.42-1.14.59-1.6.05-.12.15-.18.15-.31.31-.89.31-1.53,0-1.87a7.22,7.22,0,0,0-3.7-3,3.54,3.54,0,0,0-1.78-.57,1.34,1.34,0,0,0-1.44.69,8,8,0,0,0-1.81,6.74,7.82,7.82,0,0,0,3.29,4.76c-2.27,4.29-4.61,8.66-6.95,12.92a1.11,1.11,0,0,1,.09.4.8.8,0,0,0,.5.52,4.66,4.66,0,0,0,.62.15,1.28,1.28,0,0,0,1.22-.58c2.25-4.2,4.49-8.45,6.71-12.62a29.22,29.22,0,0,0,7.46-2.18.69.69,0,0,1,.18.16c0,.09,0,.12,0,.21q-2.87,3.61-6.51,12.07a7,7,0,0,0-.07,5.56c1.18,3.25,4.34,5.87,9.55,7.68,1,.22,2-.38,2.78-1.85,1.29-2.33,2.88-5.47,4.66-9.37a13.34,13.34,0,0,0,1.11,3.9c1,2.15,3.75,4.42,8.25,7a3.16,3.16,0,0,0,1.88.36c.36-.16.65-.55.89-1.35.13-.58.31-1.14.46-1.72,2.31-5.46,4.18-9.64,5.55-12.37a.32.32,0,0,1,.23,0,23.24,23.24,0,0,0-1.19,5,11.39,11.39,0,0,0,.64,5.84,10.49,10.49,0,0,0,4.14,4.67,3.89,3.89,0,0,0,1.39.79,4.35,4.35,0,0,0,1.81.47,2,2,0,0,0,2.18-1.14c1.62-3.93,3-7.18,4-9.61a21.72,21.72,0,0,0,.64,2.65,13.55,13.55,0,0,0,3.72,5.55,9.68,9.68,0,0,0,6.59,2.55c4.19-.12,7.87-2.17,11-6.39a29.55,29.55,0,0,0,5.69-14.1,10.29,10.29,0,0,0-.42-4.29,6.13,6.13,0,0,0-3-3.88" transform="translate(-26.21 -22.9)"/><path class="cls-1" d="M119,400.05a18.53,18.53,0,0,1-3.78,7.56,5,5,0,0,1-2.77,1.52,2.78,2.78,0,0,1-1.78-.22c1.17-3.41,3.93-6.36,8.33-8.86m24.87-5.61a1.87,1.87,0,0,0,.34-1.14,3.47,3.47,0,0,0-1.66-1.44c-2.77-1.36-5-2.43-6.67-3.2a2.09,2.09,0,0,0-.64-.21.89.89,0,0,0-1.1.37q-6.17,12.79-12.32,25.71c-1.84,2.73-3.36,4.74-4.4,6-1.91,2.14-3.5,3.31-4.79,3.53-1.71-.1-2.85-1.26-3.58-3.72-.91-3.23-.5-6.82,1.29-10.85,2.05,1.36,3.59,2,4.74,1.91,2.34-.37,4.38-2.25,6.16-5.4a12.92,12.92,0,0,0,1.79-5.51,1.92,1.92,0,0,0-.54-1.62,5.2,5.2,0,0,0-1.32-.72,16.8,16.8,0,0,0-6.29-4.24c-.47-.24-.83-.28-1-.15A23.8,23.8,0,0,0,103,409.25c0,.27-.11.51-.14.76-1,2.09-2.09,4.21-3.29,6.48a92.38,92.38,0,0,1-4.83,8.42A5,5,0,0,1,93,426.75c-.71-1.84,0-5.56,2.06-11.16,2.22-6,3.53-9.39,4-10.47a2.67,2.67,0,0,0,.22-1.54c-.39-1.72-2.55-3.1-6.54-4.24a4.5,4.5,0,0,0-2.43.07c-.93.34-1.84.81-2.79,1.23a1.85,1.85,0,0,1-.26-.35c.2-.73.37-1.31.53-1.87,0-.09.09-.21.14-.34.2-1,.2-1.69-.12-2a5.6,5.6,0,0,0-3.53-2.47,3,3,0,0,0-1.57-.18,1.6,1.6,0,0,0-1.31,1.07c-1.51,2.85-2.05,5.43-1.51,7.72a8.49,8.49,0,0,0,.95,2.23c-.3.07-.58.1-1,.16-2.21.43-4.74.95-7.56,1.6a57.87,57.87,0,0,0,5.91-11.07c2.43-5.65,3.22-9.49,2.15-11.42a3.82,3.82,0,0,0-2.69-2.63,9.74,9.74,0,0,0-2.34-.54,7.3,7.3,0,0,0-2.27.45c-1.72.83-3.5,1.72-5.23,2.64-6,3.32-12,6.73-18,10.17a99.54,99.54,0,0,1-12,6.15c-2.61,1-4.58,1.74-6,2.27-1.75.74-3.16.67-4.21,0-.39-.28-.64-.37-.9-.22a.82.82,0,0,0-.39,1.28,46.59,46.59,0,0,0,2.51,4c2.06,2.81,4.46,3.9,7.17,3.5,2.34-.34,5.57-1.91,9.89-4.49,1.32-.74,2.64-1.57,4.12-2.48A187.18,187.18,0,0,0,69.78,389c1.27-1,2.3-1.87,3.19-2.58,1.72-1.32,2.8-1.9,3.14-1.88a80.29,80.29,0,0,1-4.67,10c-3.19,5.55-6.15,10.38-9,14.44a127,127,0,0,0-14,5c-.37.15-.49.31-.52.49.22.12.46.28.64.4,2.18-.19,6-.84,11.52-1.88a96.06,96.06,0,0,0-4.32,9.3c-1.67,4.31-2.43,7.26-2.25,8.79a9.76,9.76,0,0,0,.55,4.79,7.81,7.81,0,0,0,5.22,5,6.42,6.42,0,0,0,1.45.05,1.44,1.44,0,0,0,.85-.59.73.73,0,0,0-.43-.67,6.85,6.85,0,0,1-.86-3.84c-.08-3.25,1.13-7.64,3.61-13,2.65-5.84,4.67-9.83,6-12.25A34.61,34.61,0,0,0,77.19,408c2.14-1.2,3.62-1.93,4.36-2.46a7,7,0,0,0,1.57,1.14q-2.95,7.82-5.9,15.72a2.09,2.09,0,0,0,0,.46.58.58,0,0,0,.47.37,4.21,4.21,0,0,0,.59,0,1.59,1.59,0,0,0,1.1-.92c1.91-5.12,3.81-10.23,5.74-15.3a29,29,0,0,0,6.77-3.93.51.51,0,0,0,.18,0c0,.06,0,.17,0,.34-1.69,3-3.58,7.77-5.58,14.47a9.06,9.06,0,0,0,0,6.05c1.18,3.23,4.21,5.25,9,6.08,1,0,1.84-.83,2.51-2.58,1.2-3,2.64-7.06,4.43-12.13a14.85,14.85,0,0,0,1,4,8.45,8.45,0,0,0,3.07,3.84,28.47,28.47,0,0,0,4.62,2.27,12.11,12.11,0,0,0,5.83,1.07,3.81,3.81,0,0,0,2.11-1.07c1.34-1.54,3.12-4.74,5.29-9.72a5.38,5.38,0,0,0,.39-.8c1.08-2.15,2.14-4.23,3.2-6.3a77.6,77.6,0,0,1,4.14-7.58c1-1.67,1.94-3.29,2.86-4.91l.09,0c-.74,6-1.22,10.57-1.45,13.64a48.2,48.2,0,0,1-.71,6.21c-.87,1.94-1.92,3-3.19,3.11a6.77,6.77,0,0,1-3.56-.44,1,1,0,0,0-.49.07c-.55.06-.8.26-.63.73.29.89,1.62,1.72,4.08,2.58a13.19,13.19,0,0,0,5.32,1.17c4.1-.8,6.07-4.09,5.88-9.87a56.33,56.33,0,0,1,.2-7.71,28,28,0,0,1,3.37-11.17" transform="translate(-26.21 -22.9)"/><path class="cls-1" d="M176.83,397.54c-.27-.07-.45.09-.67.52-5.44,10.61-8.82,16.25-10.35,16.81-.09,0-.24.06-.37.06-.64-2-.34-5.31.81-10a73.92,73.92,0,0,1,5.28-13.45,1.85,1.85,0,0,0,.12-1.52,2.9,2.9,0,0,0-1-1.4,49.21,49.21,0,0,0-6-3.29c-.53-.27-.79-.27-1-.13a1.51,1.51,0,0,0-.52.64c-3.67,5.6-7.3,11.15-10.94,16.8-.06.12-.06.12-.17.05s-.07-.05,0-.08c3.09-7.83,6.24-15.67,9.33-23.44a4.54,4.54,0,0,0,.34-3.47c-.92-2.58-4-4.91-9.24-7a.25.25,0,0,0-.4,0c0,.08,0,.12.07.24a3.11,3.11,0,0,1,.73,1.2,17.86,17.86,0,0,1-.58,8.28c-3.07,11.09-6.11,22.18-9.13,33.39a8.52,8.52,0,0,0-.05,4.92c.64,1.51,2.19,2.79,4.67,3.93a1.19,1.19,0,0,0,.94,0,2.34,2.34,0,0,0-.36-1.5,7.35,7.35,0,0,1,.49-3.07c1.33-3.38,5.49-11.45,12.69-23.78.07,0,.07.07.09.1a60.38,60.38,0,0,0-3.13,13.38,13.15,13.15,0,0,0,.62,6.3c.71,1.82,2.27,3.35,4.61,4.73a8.17,8.17,0,0,0,5.28,1.86c.7-.12,1.22-.34,1.32-.8,1.23-2.12,3.6-8.63,7-19.39a1.68,1.68,0,0,0,0-.61.59.59,0,0,0-.49-.36" transform="translate(-26.21 -22.9)"/><path class="cls-1" d="M278.61,389.62a5.69,5.69,0,0,0-6.2-4.08.56.56,0,0,0-.31.24c.05,0,.2,0,.55.1a1.81,1.81,0,0,1,.79,1.25c.84,3.26.31,7.1-1.62,11.53a31.49,31.49,0,0,1-2.83,5.62c-2.24,2.76-4,4-5.41,3.93a1.23,1.23,0,0,1-.81-.17,7.25,7.25,0,0,1-.94-1.88q-1.93-5.3,1.14-11.86c2.64-5.65,6-9,10.28-10.17a1,1,0,0,1,.83.19,1.43,1.43,0,0,0,1.05.25c.37-.25.43-.59.12-1-2.36-3.05-4.67-4.41-7-4.21a11.58,11.58,0,0,0-6.8,3.22,29.52,29.52,0,0,0-3.53,4.55,35.77,35.77,0,0,0-6-1.79Q256.24,378,268,365.44a1.22,1.22,0,0,0,.46-1.32,2.35,2.35,0,0,0-.38-.61,27.77,27.77,0,0,0-6.82-4.87c-.62-.36-.95-.48-1.27-.26s-.4.36-.4.86a107.2,107.2,0,0,0-16.59,25.31,33.78,33.78,0,0,0-3.92.12c-3.51.18-7.57.65-12.24,1.3A78.43,78.43,0,0,0,233.6,370a3.55,3.55,0,0,0-.24-1.56,4.86,4.86,0,0,0-2.65-2.74c-2.18-1.46-4.05-2.08-5.53-1.9a64.39,64.39,0,0,0-31.43,14.41c-.6.52-.89,1.05-.72,1.39a1,1,0,0,0,.14.27,16.72,16.72,0,0,0,5.53,4.79,7,7,0,0,0,3.78.74c1.39-.09,2-.39,1.81-.92-.07-.28-.31-.4-.65-.49-.61,0-1.17-.14-1.76-.21,10.51-10.36,19.66-15.66,27.32-16.31h.69a.27.27,0,0,1,0,.26,202.17,202.17,0,0,0-13.25,20.16c-3.6.79-7.16,1.59-10.73,2.39a51.08,51.08,0,0,1-8,2c-3.28.54-5.74-.08-7.52-1.76-.46-.34-.77-.34-1-.2-.1,0-.12.13-.22.13,0,.19.1.43.4.74a41.37,41.37,0,0,0,3.83,3.72c2.92,2.61,5.66,3.78,8.24,3.56a12.83,12.83,0,0,0,3.72-1.07c3.35-1.48,5.87-2.55,7.51-3.29,0,0,0,.1.05.13-.8,1.72-1.66,3.47-2.49,5.12-2,4.37-2.7,7.65-2.11,9.84,1.29,4.29,3.59,6.85,7,7.71.73.18,1.33.21,1.47-.1a5.87,5.87,0,0,0-.79-1.38c-.46-1.11-.25-2.93.74-5.5,1.68-4.89,4.24-11.41,7.86-19.39,7.83-2.27,13.57-3.4,17.16-3.46A51.17,51.17,0,0,0,237.94,399c-.56,3.5-.58,6-.06,7.4a12,12,0,0,0,7.19,7.5c1,.43,1.51.27,1.64-.19,0-.19.09-.3,0-.4s-.2-.34-.4-.49a8.65,8.65,0,0,1-2.34-3.72c-.89-5.06,1.35-12.31,6.75-21.5a33.67,33.67,0,0,1,6.4,1,19.37,19.37,0,0,0-2.06,9.94,13.61,13.61,0,0,0,1.07,5,10,10,0,0,0,6.43,6.08c.55.59,1.63.86,3.19,1,6-.28,10.27-4.27,12.77-12,1.23-3.77,1.3-6.76.1-8.93" transform="translate(-26.21 -22.9)"/><path class="cls-2" d="M160,22.9,413.19,359,668,22.9,411.9,219.74ZM411.86,227.51,635.48,55.67,413.19,348.8,193,56.47Z" transform="translate(-26.21 -22.9)"/><path class="cls-1" d="M225.42,204.47c.64-.36,1.29-.76,1.93-1.17a5.87,5.87,0,0,0,2.77-3.62c0-.09,0-.15.05-.22.68.19,1.32.39,2,.55a44.15,44.15,0,0,0,11.36,1.54,48.47,48.47,0,0,0,18.37-4c7.58-3.11,12.56-5.68,15-7.74,1-.78,3-1.17,5.71-1.17l1.63,0h.17a5.9,5.9,0,0,0,4.34-1.77,6,6,0,0,0,1.81-4.37,6.42,6.42,0,0,0-.39-2.14l-1.63-4.31a6.58,6.58,0,0,0,1.63-1.2,5.88,5.88,0,0,0,1.78-4.33,6.35,6.35,0,0,0-.37-2.17L280,138a7.43,7.43,0,0,1-.43-2.48,5.46,5.46,0,0,1,.22-1.76,6.38,6.38,0,0,0,.39-2.24,6.15,6.15,0,0,0-6.15-6.15,5.69,5.69,0,0,0-2.12.41q-4.22,1.56-8.41,3.22a7.49,7.49,0,0,0-.29-.83L261.61,124a6.68,6.68,0,0,0,1.72-1.2,6,6,0,0,0,1.78-4.37,6.73,6.73,0,0,0-.43-2.27l-8.35-21a6.1,6.1,0,0,0-2.24-2.83,6,6,0,0,0-3.48-1,5.89,5.89,0,0,0-4.45,1.89l-.06.11c-1.66,1.74-2.86,2.73-3.6,3a.4.4,0,0,1-.15.07c-.7.25-1.75.56-3.14.95a68.36,68.36,0,0,0-8.87,3.1s0,0-.07,0q-12.76,5.89-20,13.45A49.62,49.62,0,0,0,201.53,127a.26.26,0,0,0-.07.13,40.74,40.74,0,0,0-3.62,17c0,.34,0,.7,0,1.08-.22.7-.4,1.44-.56,2.18l-6.11-10a6.38,6.38,0,0,1-.83-3.37c0-.31,0-.53,0-.74a6.34,6.34,0,0,0,.13-1.29,6.08,6.08,0,0,0-6.15-6.15,6,6,0,0,0-3.17.86q-12.48,7.51-24.44,15.76a6,6,0,0,0-2,2.22,6.14,6.14,0,0,0-.71,2.85,5.88,5.88,0,0,0,1.83,4.33,6.57,6.57,0,0,0,1.56,1.17l-.43.28a21.55,21.55,0,0,0-14.65-5.38q-11.34,0-22.7,9.31-18.41,15.07-35.05,31.68a6.21,6.21,0,0,0,0,8.69,7.7,7.7,0,0,0,1.07.86c-.82.82-1.65,1.62-2.45,2.45a6.14,6.14,0,0,0,4.31,10.48,6.89,6.89,0,0,1,4.73,2.09l48.56,49.36a7.74,7.74,0,0,1,2.42,4.88c.25,3.84,2.3,5.74,6.15,5.74.28,0,.56,0,.86,0a5.9,5.9,0,0,0,3.47-1.76q13-13,26.63-24.17,13.38-11,13.37-26c0-.8,0-1.6-.1-2.4.25-.74.45-1.51.65-2.25l1,1.45a7.42,7.42,0,0,1,1.28,4.24v.83c0,.28.08.55.12.83a7.21,7.21,0,0,0,.5,1.44,5.72,5.72,0,0,0,5.53,3.48c.17,0,.34,0,.52,0a5.87,5.87,0,0,0,3-1.08c6.45-4.43,13-8.67,19.75-12.69a5.92,5.92,0,0,0,2.76-3.66A5.83,5.83,0,0,0,229,210a5.64,5.64,0,0,0-3.54-5.56" transform="translate(-26.21 -22.9)"/><path class="cls-1" d="M528.48,138.49,525,150.35a6.19,6.19,0,0,1-2.61,3.53,5.84,5.84,0,0,0-2.73,5.1,6,6,0,0,0,.56,2.52,5.84,5.84,0,0,0,2.45,2.79,7.42,7.42,0,0,1-1.66,1.59,6.21,6.21,0,0,0-2.2,7.62,5.88,5.88,0,0,0,3.89,3.39q11.43,3.32,22.62,7.34a6.06,6.06,0,0,0,2,.37,9.5,9.5,0,0,0,1-.06,5.83,5.83,0,0,0,4.76-3.94,6.23,6.23,0,0,0,.36-2.15,6.12,6.12,0,0,0-.39-2.24,5.57,5.57,0,0,1-.34-2.16,5.82,5.82,0,0,1,.34-2.09l.64-1.84a7.35,7.35,0,0,0,.81-1.51,6.08,6.08,0,0,0,.36-1.81l1.39-3.9.17.08a47.76,47.76,0,0,0,16.84,3.32c1,0,1.91,0,2.85-.12-.18.24-.33.46-.48.68a9.94,9.94,0,0,1-4.86,3.37,5.69,5.69,0,0,0-4.15,5.81,5,5,0,0,0,.09,1,6.15,6.15,0,0,0,3.6,4.64l.21.12c-.36.16-.73.32-1.17.47a5.62,5.62,0,0,0-4.14,5.8,5,5,0,0,0,.09,1,6,6,0,0,0,1.19,2.79,6.44,6.44,0,0,0,2.41,1.89q10.86,4.78,21.44,10.25a6.13,6.13,0,0,0,9-5.46c0-.22,0-.44,0-.64,0-1,1.29-2.86,3.71-5.69.21.1.41.22.62.32a6.86,6.86,0,0,0-.34,2.15,5.74,5.74,0,0,0,.47,2.27,5.93,5.93,0,0,0,2.61,3,4.45,4.45,0,0,1-1.32,1.34,5.75,5.75,0,0,0-3.13,5.36,5.81,5.81,0,0,0,.42,2.26,6.08,6.08,0,0,0,2.65,3.07q10.32,5.94,20.2,12.51a6,6,0,0,0,3.39,1,5.08,5.08,0,0,0,1-.1,5.64,5.64,0,0,0,5-4.63,5.35,5.35,0,0,0,.15-1.41,5.12,5.12,0,0,0-.15-1.38,11.43,11.43,0,0,1-.22-2.42,9.52,9.52,0,0,1,.55-3.41V212q10.88-29.55,19.68-59.94a4.1,4.1,0,0,1,1.52-2.3,6.19,6.19,0,0,0,2.12-1.39,5.87,5.87,0,0,0,1.78-4.35,5.68,5.68,0,0,0-.8-3A5.79,5.79,0,0,0,657,138.8c-.09-.07-.21-.12-.29-.19a2,2,0,0,1,.79-.79,6.27,6.27,0,0,0,2.12-1.42,5.89,5.89,0,0,0,1.79-4.34,6.28,6.28,0,0,0-.8-3,6.1,6.1,0,0,0-2.18-2.25c-10.79-6.48-21.85-12.5-33.11-18.1a6.13,6.13,0,0,0-2.74-.64,6.17,6.17,0,0,0-6.14,6.15,5.86,5.86,0,0,0,.12,1.11v0a4.19,4.19,0,0,1-1.13,2.61c-2.57,3-5.08,5.87-7.6,8.83a29.94,29.94,0,0,0,.68-6.33q0-20.22-26.33-30.41s0,0-.06,0q-16.45-6.13-33.29-11a6.51,6.51,0,0,0-1.72-.25,6,6,0,0,0-4.37,1.81,5.89,5.89,0,0,0-1.79,4.33,6.12,6.12,0,0,0,.8,3,2.78,2.78,0,0,0,.17.25,5.25,5.25,0,0,1,.63,2.6,4.2,4.2,0,0,1-.1.86,5.75,5.75,0,0,0-1.11.92,4.19,4.19,0,0,0-.67.77,25.82,25.82,0,0,0-6.24-11.64Q526.52,73,510.15,69.53h-.07Q492.85,66.12,475.44,64a6,6,0,0,0-.74-.07,6.19,6.19,0,0,0-6.13,6.15,6.06,6.06,0,0,0,1,3.4,5.42,5.42,0,0,0,.58.71,5.09,5.09,0,0,1,1,2.12,6.43,6.43,0,0,0-2.19,1.44,5.91,5.91,0,0,0-1.79,4.32,6,6,0,0,0,1,3.39,3.73,3.73,0,0,0,.56.73,5,5,0,0,1,1,2.55l-.38,2.88a43.33,43.33,0,0,0-11.36-19.17A44.68,44.68,0,0,0,425.7,59h-.64q-19.39,0-32.72,13.24a46.9,46.9,0,0,0-6.88,8.66,32.83,32.83,0,0,0-7-14.07Q369.14,56,351.11,56a72.73,72.73,0,0,0-11.42,1h-.09q-19.46,3.36-38.59,8.3a6,6,0,0,0-3.33,2.17,6.21,6.21,0,0,0,.47,8.1,6.85,6.85,0,0,0,1.72,1.24,3.91,3.91,0,0,0,.47.28,4.58,4.58,0,0,1-.74.22,5.84,5.84,0,0,0-3.31,2.18,6.11,6.11,0,0,0,2.21,9.31,6.18,6.18,0,0,1,2.71,3.87L318,159.84a8.57,8.57,0,0,1,.27,2.18,8.44,8.44,0,0,1-.68,3.54,6.29,6.29,0,0,0,0,4.82,5.78,5.78,0,0,0,4.83,3.73c.27,0,.56.05.86.05a6.29,6.29,0,0,0,1.53-.18q12.73-3.28,25.56-5.65a6.16,6.16,0,0,0,2.76-1.3,6,6,0,0,0,1.81-2.42,6,6,0,0,0,.46-2.32,5.87,5.87,0,0,0-2.27-4.76,7.83,7.83,0,0,1-1.17-1.23A5.91,5.91,0,0,0,354.5,155a6,6,0,0,0,1.81-2.42,6.11,6.11,0,0,0,.46-2.34,5.92,5.92,0,0,0-2.27-4.76,8,8,0,0,1-2.73-4.82l0-.19q16.63-3.5,25.59-14.62c.5-.62,1-1.24,1.39-1.85a49.68,49.68,0,0,0,14.18,27.21q13,12.9,30.16,13.16h.47q17,0,30.16-12.52a49,49,0,0,0,5.91-6.59,6.42,6.42,0,0,0-.15,1.41,6,6,0,0,0,.45,2.3,6.15,6.15,0,0,0,1.84,2.49,6.69,6.69,0,0,1-1.75,2.73,6.09,6.09,0,0,0-1.51,6.79,6.22,6.22,0,0,0,2,2.55,5.74,5.74,0,0,0,3,1.24c7.86.94,15.7,2.17,23.51,3.62a7.89,7.89,0,0,0,1.13.09,5.77,5.77,0,0,0,1.94-.31,5.64,5.64,0,0,0,4.2-5.84,6,6,0,0,0-.86-3.13,6,6,0,0,1-.76-3.11v-.43a5.51,5.51,0,0,0,3-5.32,6.13,6.13,0,0,0-.86-3.13,5.56,5.56,0,0,1-.5-1.14l.1-.53.21.06A54.94,54.94,0,0,0,505,146.73c9.22,0,16.93-2.64,23.19-8a.92.92,0,0,0,.31-.24" transform="translate(-26.21 -22.9)"/><path class="cls-1" d="M659.55,150.31a6.11,6.11,0,0,0-2.83,2,5.86,5.86,0,0,0-1.32,3.81,6,6,0,0,0,1.69,4.24,5.81,5.81,0,0,0,2.42,1.56,6,6,0,0,1-.83.22,6.21,6.21,0,0,0-4.7,6,6.12,6.12,0,0,0,4.7,6,.12.12,0,0,0,.09,0,51,51,0,0,0,15.54,2.76h.46a24.14,24.14,0,0,0-1.93,9.56,23.05,23.05,0,0,0,.22,3.19,24.26,24.26,0,0,0-1.63,8.82,32.6,32.6,0,0,0,2.34,11.2,40.55,40.55,0,0,1-3-11.88,6,6,0,0,0-2-3.91,5.85,5.85,0,0,0-4.09-1.56,6.08,6.08,0,0,0-2.73.64,6.46,6.46,0,0,0-2.18,1.81l-18.43,24.53a6.19,6.19,0,0,0,.55,8c.22.18.4.36.61.52l-2.58,3.44a6.15,6.15,0,0,0,.59,8.06,5.89,5.89,0,0,0,4.33,1.77,6.14,6.14,0,0,0,.71,0,23.65,23.65,0,0,1,3-.21,6.46,6.46,0,0,1,1.26.09c.28.28.64.68,1.11,1.19l2.76,3.39a69.55,69.55,0,0,0,8.17,9,35.38,35.38,0,0,0,23.87,8.78q14,0,23.53-9.27s0,0,0,0a25.82,25.82,0,0,0,8-19.05c0-1,0-1.87-.12-2.83.15-.43.29-.85.42-1.29A5.84,5.84,0,0,0,721,229l19.63-20.48a6,6,0,0,0,1.69-4.27,5.83,5.83,0,0,0-1.63-4.16,6.4,6.4,0,0,0-1.13-1l2.49-2.58a6,6,0,0,0,1.69-4.27,5.79,5.79,0,0,0-1.64-4.15,5.88,5.88,0,0,0-4-2h-.18a22.19,22.19,0,0,1-3.72-.53,22.59,22.59,0,0,1-1.25-1.9s0,0,0,0l-.76-1.3s0,0-.07-.09a46,46,0,0,0-8.44-9.33q-13.21-11.57-26.26-11.58c-.8,0-1.57,0-2.33.09,0-.39,0-.83,0-1.23a19.73,19.73,0,0,0-.53-4.51,14.83,14.83,0,0,0,1.94-7.5q0-9.6-8.91-15.7a21.12,21.12,0,0,0-12.11-3.86c-5.89,0-10.26,2.2-13.12,6.69a14.42,14.42,0,0,0-2.21,7.8,16.15,16.15,0,0,0,.62,4.54,12.27,12.27,0,0,0-1.23,2.59" transform="translate(-26.21 -22.9)"/><path class="cls-3" d="M120.17,185l11,12.48q3-2.64,6-5.23c4.39-3.75,7.38-9.3,3.81-13.77-3.95-4.92-8.94-3.69-14.21.77-2.23,1.9-4.44,3.81-6.63,5.75m30.65,70.32a14.57,14.57,0,0,0-4.17-8.79L98.09,197.16A14,14,0,0,0,89,193.24q16.52-16.47,34.6-31.27c10.36-8.5,22.77-11.27,30.77-2.74,6.95,7.54,9.15,14.4,7,21,3.58-.75,13.67-.94,22,12s8.08,27.4-5.44,38.47q-14.14,11.64-27.09,24.6m-8.07-44.74,14.43,16.34q3.5-3.1,7.07-6.11c5.76-4.83,6.5-10.47,2-16.11-5-6.31-10.85-5-17.29.48-2.12,1.78-4.2,3.59-6.27,5.41" transform="translate(-26.21 -22.9)"/><path class="cls-4" d="M135.14,172.76c-3.12,0-6.39,1.48-10,4.54-2.21,1.88-4.48,3.83-6.69,5.79l-1.92,1.69,14.4,16.31,1.93-1.7c1.94-1.72,4-3.46,6-5.19,6.51-5.54,8.14-12.34,4.16-17.31a9.87,9.87,0,0,0-7.87-4.14m23.73,25.17c-3.55,0-7.31,1.73-11.51,5.27-2.1,1.79-4.23,3.63-6.29,5.46l-1.93,1.69L157,230.53l1.91-1.69c2.3-2,4.67-4.08,7-6.08,6.85-5.74,7.72-12.92,2.41-19.66-2.7-3.43-5.88-5.17-9.45-5.17m-6.68,52.44a17.8,17.8,0,0,0-3.71-5.63L99.91,195.36a15.25,15.25,0,0,0-5.73-3.65c9.91-9.69,20.32-19,31-27.76,5.77-4.74,11.87-7.35,17.19-7.35a13.33,13.33,0,0,1,10.1,4.38c6.19,6.71,8.3,12.76,6.43,18.48l-1.38,4.21,4.33-.91a12.22,12.22,0,0,1,2.4-.23c3.65,0,10.69,1.45,16.91,11.09,8.45,12.88,6.64,25.66-4.9,35.12-8.32,6.83-16.4,14.1-24.1,21.63" transform="translate(-26.21 -22.9)"/><path class="cls-3" d="M201.77,202.84l-34.21-50.43a11.89,11.89,0,0,0-7.32-4.9q11.83-8.15,24.15-15.54a13.24,13.24,0,0,0,1.57,8.61l31.71,52a13.26,13.26,0,0,0,6.53,5.43Q214,204.18,204.13,211a14.29,14.29,0,0,0-2.36-8.12" transform="translate(-26.21 -22.9)"/><path class="cls-4" d="M206.16,206.48a16.37,16.37,0,0,0-2.27-5.08L169.68,151a13.8,13.8,0,0,0-4.11-4c5.35-3.61,10.8-7.11,16.3-10.48a15,15,0,0,0,1.92,5.4l31.7,52a16.17,16.17,0,0,0,3.7,4.16c-4.4,2.71-8.76,5.51-13,8.39" transform="translate(-26.21 -22.9)"/><path class="cls-3" d="M285.83,170.59c-1.08-.07-7.62-.48-11.41,2.51-1.93,1.73-6.88,4.1-13.42,6.8-8.82,3.61-16.66,4.57-25.85,2.19-10.73-2.84-21.09-10.68-26.23-19.48a36.66,36.66,0,0,1-1.86-33c3.55-7.38,8.35-15.66,25.8-23.72,4.77-2.13,7.78-2.62,11.42-3.84,2.67-.8,5.43-3.75,6.36-4.74L259,118.41c-7.22-2.15-21.81-.62-28.59,7.12-7.06,8.3-7.6,17.55-2.78,26.81,7.17,13.13,21.52,18.39,34.88,8.84l-6-13.81a12.93,12.93,0,0,0-6-6.3q11.66-5.13,23.62-9.58a12.72,12.72,0,0,0,.21,8.65Z" transform="translate(-26.21 -22.9)"/><path class="cls-4" d="M244.93,180.83a35.9,35.9,0,0,1-9.13-1.22c-9.89-2.61-19.8-10-24.69-18.3a33.89,33.89,0,0,1-1.74-30.6c3.64-7.54,8.26-14.95,24.54-22.47a53.28,53.28,0,0,1,7.68-2.68c1.1-.31,2.25-.64,3.46-1a14.16,14.16,0,0,0,4.6-2.7l5.25,13.26c-1-.08-2-.12-3-.12-7.56,0-17.69,2.32-23.43,8.87-7.55,8.86-8.61,19.12-3.12,29.69l0,0c5.15,9.43,13.76,15.05,23,15.05A26.58,26.58,0,0,0,264,163.26l1.67-1.21-6.8-15.71a14.79,14.79,0,0,0-3.26-4.7c5.05-2.18,10.18-4.25,15.3-6.22a16.78,16.78,0,0,0,1,5.63l10.23,27c-3,.21-6.64,1-9.3,3.06l-.06,0-.06,0c-1,.94-4.1,2.81-12.69,6.36a39.24,39.24,0,0,1-15.09,3.3" transform="translate(-26.21 -22.9)"/><path class="cls-3" d="M342.35,124.24l3.4,17.6a15,15,0,0,0,4.86,8.43q-13.08,2.42-26,5.75a15.82,15.82,0,0,0,.72-9.65L308.57,79.17a12.81,12.81,0,0,0-6-7.94Q321.4,66.35,340.65,63c31.23-5,38.65,11.79,39.77,25.29,1.17,12.16-5.24,30.33-31.06,34.62q-3.51.63-7,1.29M334.23,82.3l4.85,25.06c1.65-.33,3.29-.63,4.92-.93,10.62-1.91,16.37-6.24,15-16.49-1.43-10.5-9.59-10.44-20-8.53l-4.71.89" transform="translate(-26.21 -22.9)"/><path class="cls-4" d="M347.65,77.86a51.11,51.11,0,0,0-9.17,1c-1.59.29-3.16.58-4.75.89l-2.51.49L337,110.34l2.51-.48,4.9-.91c8.25-1.48,19-5.11,17.06-19.36-1.06-7.78-5.73-11.73-13.87-11.73m-19.48,74.61a18.08,18.08,0,0,0-.34-6.73L311,78.55a14.93,14.93,0,0,0-3.11-6c10.94-2.72,22.06-5,33.14-6.94a65.32,65.32,0,0,1,10.06-.86c16.41,0,25.41,8,26.74,23.84,1.17,12.3-5.72,28-29,31.88-2.32.4-4.7.84-7.08,1.31l-2.5.48,3.88,20.11a17.71,17.71,0,0,0,2.54,6.25c-5.87,1.16-11.77,2.47-17.6,3.9" transform="translate(-26.21 -22.9)"/><path class="cls-3" d="M385.64,107c-2.21-22.06,15.46-42.25,40-41.93C449.95,65.39,467.26,86,464.5,108c-2.77,22.24-20.6,38.41-39.92,38.21-19.47-.28-36.75-16.91-38.95-39.21m20.5-1.31c.72,17,12,24.46,18.64,24.6s18-7.14,19.1-24.14-10.8-25.43-18.46-25.46-20,7.91-19.28,25" transform="translate(-26.21 -22.9)"/><path class="cls-4" d="M425.18,78.16c-4.85,0-10.35,2.6-14.36,6.79-3.55,3.7-7.67,10.31-7.24,20.87.76,18.17,13.07,26.9,21.14,27.07h.1c4.5,0,9.52-2.44,13.45-6.49,3.35-3.45,7.47-9.74,8.16-20,.72-10.75-3.34-17.53-6.87-21.32-3.93-4.22-9.35-6.86-14.14-6.89Zm-.58,65.53a35.14,35.14,0,0,1-24.16-10.62,43,43,0,0,1-12.26-26.28,35.27,35.27,0,0,1,9-27A37,37,0,0,1,425,67.66h.56a37,37,0,0,1,27.89,12.66,35.07,35.07,0,0,1,8.49,27.4,42.94,42.94,0,0,1-12.85,25.85,35.29,35.29,0,0,1-24.2,10.12Z" transform="translate(-26.21 -22.9)"/><path class="cls-3" d="M490.8,126.42,488,141.94a13,13,0,0,0,1.43,8.43c-7.92-1.47-15.89-2.7-23.88-3.67a13.49,13.49,0,0,0,3.9-7.6l7.8-60.44a11.48,11.48,0,0,0-2.57-8.56q17.18,2.08,34.18,5.46c27.3,5.73,28.37,21.75,25.11,33.31-2.78,10.39-13.75,23.44-36.86,18.73-2.11-.41-4.21-.81-6.34-1.19m6.63-37.12-4,22.16,4.39.8c9.69,1.86,15.81.1,17.86-8.72,2.11-9.07-4.73-11.71-14-13.46-1.42-.27-2.85-.53-4.29-.78" transform="translate(-26.21 -22.9)"/><path class="cls-4" d="M490.5,113.52,493,114l4.36.8a34.21,34.21,0,0,0,6.62.72c7.67,0,12.47-3.82,14.21-11.36.86-3.73.47-6.9-1.19-9.43-2.82-4.33-8.79-6-14.83-7.12-1.43-.28-2.87-.55-4.31-.8l-2.52-.46Zm-4.92,33.54c-5.09-.88-10.21-1.67-15.31-2.35a15.4,15.4,0,0,0,1.75-5.28L479.83,79a13.45,13.45,0,0,0-.55-5.73c9.74,1.29,19.51,2.9,29.11,4.81,10.87,2.29,18.19,6.43,21.75,12.3,2.92,4.77,3.37,10.77,1.39,17.81-2.32,8.65-10.12,17.85-25.12,17.85a44.34,44.34,0,0,1-8.76-.94c-2.1-.4-4.25-.81-6.39-1.2l-2.53-.46-3.22,18.05a14.81,14.81,0,0,0,.07,5.57" transform="translate(-26.21 -22.9)"/><path class="cls-3" d="M553.91,143l-5.23,14.88a13,13,0,0,0,0,8.55c-7.57-2.74-15.24-5.22-23-7.47a13.48,13.48,0,0,0,5.07-6.88l17.42-58.39a11.46,11.46,0,0,0-1.16-8.87Q563.73,89.68,580,95.75c26,10.05,24.48,26,19.41,36.93C595,142.49,582,153.58,560,145.23c-2-.75-4-1.47-6.08-2.19m12.52-35.57L559,128.7l4.22,1.51c9.26,3.39,15.59,2.64,19-5.73,3.54-8.62-2.78-12.33-11.64-15.54l-4.11-1.47" transform="translate(-26.21 -22.9)"/><path class="cls-4" d="M555.69,130.27l2.42.85c1.4.49,2.79,1,4.19,1.5a28.56,28.56,0,0,0,9.65,2c5.88,0,10.11-3.1,12.62-9.2,1.46-3.54,1.57-6.74.36-9.5-2.09-4.74-7.72-7.32-13.5-9.41-1.37-.5-2.75-1-4.13-1.49l-2.41-.85Zm-10.25,32.31c-4.87-1.68-9.8-3.29-14.74-4.78a15.4,15.4,0,0,0,2.58-4.93l17.43-58.41a13.24,13.24,0,0,0,.4-5.73c9.4,2.84,18.79,6,28,9.43,10.35,4,16.92,9.25,19.48,15.64C600.64,119,600.14,125,597,131.6a24,24,0,0,1-22.36,14,39.22,39.22,0,0,1-13.78-2.78c-2-.73-4.05-1.49-6.14-2.21l-2.42-.86-6.08,17.3a15.16,15.16,0,0,0-.82,5.5" transform="translate(-26.21 -22.9)"/><path class="cls-3" d="M614.27,188.28q1.28-4.15,2.53-8.3-6.81-3.9-13.77-7.52c-2.67,3.13-9,9.06-8.45,14q-10.73-5.53-21.8-10.41a17.13,17.13,0,0,0,7.73-5.49q18.89-24.9,39.58-48.64c3.32-4,2.51-7.73,2.5-7.73q16.69,8.25,32.67,17.86s-3.62,1.34-5.16,6.28q-8.79,30.24-19.56,59.58a17.55,17.55,0,0,0-.56,9.39q-10.06-6.68-20.54-12.71a11.19,11.19,0,0,0,4.83-6.32m-1.16-27.38c2.62,1.4,5.23,2.82,7.83,4.29q4.88-13.22,9.51-26.55-8.81,11-17.34,22.26" transform="translate(-26.21 -22.9)"/><path class="cls-4" d="M628.45,137.06c-5.86,7.35-11.69,14.86-17.37,22.31l-1.82,2.4,2.65,1.41c2.59,1.37,5.22,2.81,7.78,4.26l2.62,1.46,1-2.8c3.26-8.84,6.46-17.78,9.51-26.6Zm-1.39,65.28c-4.34-2.8-8.76-5.52-13.22-8.14a14.66,14.66,0,0,0,2.87-5.13c.88-2.88,1.75-5.68,2.55-8.34l.58-1.95-1.77-1c-4.55-2.6-9.21-5.14-13.86-7.55l-1.8-.94-1.32,1.54-1.39,1.55c-2.43,2.67-5.79,6.35-7.12,10.24-4.57-2.32-9.25-4.56-13.93-6.69a17.59,17.59,0,0,0,3.93-3.79c12.5-16.49,25.77-32.8,39.44-48.48l0,0a13.42,13.42,0,0,0,2.79-5.38c8.72,4.41,17.38,9.13,25.8,14.1a13.42,13.42,0,0,0-3,5.26l0,0c-5.81,20-12.36,40-19.49,59.41a17.73,17.73,0,0,0-1.09,5.32" transform="translate(-26.21 -22.9)"/><path class="cls-3" d="M670,151.61c-3.74-3.89-4.84-9.17-2.45-12.92,3-4.72,10.52-5.21,16.58-1.06S692,149,688.7,153.48c-7.78,10.12-27.13,2.53-27.17,2.66,5.73-1.37,7.71-3.66,8.48-4.52" transform="translate(-26.21 -22.9)"/><path class="cls-4" d="M675.74,156.18a35.14,35.14,0,0,1-6.32-.62,12.7,12.7,0,0,0,2.46-2.2l1.62-1.8-1.64-1.71c-3-3.08-3.85-7.11-2.15-9.79a6.58,6.58,0,0,1,5.77-2.69,13,13,0,0,1,7.19,2.37,11.35,11.35,0,0,1,5,7.2,6.55,6.55,0,0,1-1,5c-2.18,2.82-5.86,4.24-10.92,4.24" transform="translate(-26.21 -22.9)"/><path class="cls-3" d="M657,226.27a19.29,19.29,0,0,0-2.36-2.41c-1.92-1.32-4.91-1.25-8.43-.86l18.44-24.53c1.12,10.15,5.23,19.6,12.05,25.48,4.23,3.59,10,6.15,13.8,2s.41-10.64-2-15.12c-1.1-2.09-2.35-4.26-3.55-6.55-4.88-8.92-9.64-19.14-2.1-29.25,8.84-12,24.07-8.58,36.69,2.55a36,36,0,0,1,7.32,8,26.46,26.46,0,0,0,3.34,4.82c1.53,1.42,5.79,1.7,7.37,1.83L718,212.79c-.19-9.51-3.12-18.64-10-24.56-2.82-2.42-5.48-3.7-7.68-1-1.2,1.44-.95,3.49,0,5.44,1.86,3.43,4.68,8,6.76,11.77,6.13,11.86,8.57,24.14-.71,33.3-10.39,10.12-27.89,9.88-39.1.24-3.91-3.38-6.87-7.7-10.21-11.65" transform="translate(-26.21 -22.9)"/><path class="cls-4" d="M687.1,242.65A27.89,27.89,0,0,1,668.92,236a57.52,57.52,0,0,1-7.1-7.88c-.92-1.15-1.86-2.34-2.85-3.48a20,20,0,0,0-2.73-2.77l-.06,0-.07,0a9.3,9.3,0,0,0-4.6-1.51l11.65-15.47c2,8.72,6.21,16.23,11.91,21.11,2.08,1.78,6.25,4.77,10.69,4.77a8.81,8.81,0,0,0,6.65-2.95c5.07-5.54.57-14-1.6-18.06-.47-.88-1-1.8-1.48-2.73-.68-1.22-1.38-2.5-2-3.78l0-.07c-4.92-9-8.8-17.79-2.3-26.5a14.86,14.86,0,0,1,12.43-6.5c6.33,0,13.62,3.35,20.5,9.45,4.13,3.57,5.79,5.79,6.85,7.48.28.43.53.82.75,1.22a20.38,20.38,0,0,0,2.9,4l.06.07.06.05a8.65,8.65,0,0,0,3.8,1.8l-12.21,12.75c-1-6.93-3.71-14.82-10.48-20.61-1.7-1.46-4-3.13-6.56-3.13a6.07,6.07,0,0,0-4.75,2.39c-1.75,2.1-1.87,5.1-.33,8.21l0,.08c1,1.79,2.15,3.81,3.41,5.95,1.16,2,2.35,4,3.33,5.82,6.92,13.37,6.83,23.28-.24,30.27a24.71,24.71,0,0,1-17.44,6.79" transform="translate(-26.21 -22.9)"/><path class="cls-5" d="M234,261.47c0,30.33,26.66,54.89,59.59,54.89H531.93c32.92,0,59.59-24.56,59.59-54.89s-26.68-54.91-59.59-54.91H293.58c-32.93,0-59.59,24.57-59.59,54.91" transform="translate(-26.21 -22.9)"/><path class="cls-3" d="M336.35,297.7a19.31,19.31,0,0,0-7-1.62,8,8,0,0,0-2.09.26,43.32,43.32,0,0,1-10.06.81c-1.47,0-3.07,0-4.73-.09-9.84-.34-17.18-3.06-23.8-8.77a38.14,38.14,0,0,1-12.6-27.2A35.2,35.2,0,0,1,289,233.86c5.53-4.51,12.22-8.92,27.69-9h.82a35.32,35.32,0,0,1,5.84.52c1,.15,1.92.28,2.94.35h.3a9.79,9.79,0,0,0,4.16-1.43l3.77-2.08V251.1l-4.16-3.4c-2.91-2.36-9.11-4.87-14.84-4.87a14.26,14.26,0,0,0-5.93,1.15c-6.84,3.24-10.33,9-10.33,17.08,0,10.22,6.76,17.37,16.44,17.37a20.51,20.51,0,0,0,2.48-.15V267.7a9,9,0,0,0-1.82-5.3l-3.72-4.26,5.66,0h27.13l-3.71,4.25a9,9,0,0,0-1.8,5.29v31.58Z" transform="translate(-26.21 -22.9)"/><path class="cls-6" d="M337.38,295.36c-1-.42-6.34-2.67-10.75-1.5-2.3.64-7.44.86-14,.64-8.91-.31-15.86-2.67-22.2-8.15a35.54,35.54,0,0,1-11.72-25.3,32.65,32.65,0,0,1,12-25.19c5.12-4.19,11.22-8.37,26.11-8.49,4.16-.1,6.35.65,9.41.87,2.19.21,4.88-1.18,5.85-1.71v19.19c-4.77-3.86-15.87-7.5-23.43-4.08-7.95,3.76-11.84,10.52-11.84,19.42,0,12.64,9.52,22.3,24,19.41V267.7a11.4,11.4,0,0,0-2.44-7h21.48a11.41,11.41,0,0,0-2.44,7Z" transform="translate(-26.21 -22.9)"/><path class="cls-3" d="M374.25,256.25c8.57,0,10.39-2.21,10.5-6.54l-.12-.31v-.47c0-4.35-2.55-5-10.75-5H373v12.36Zm20.52,41.69c-9.46,0-12.85-7.82-14.14-10.77l-.17-.4c-3.88-8.8-4.32-9.63-6.77-12.53H373v12.45a7.88,7.88,0,0,0,1.93,5.06l4.38,4.36H344.7l4.14-4.32a8.25,8.25,0,0,0,1.84-5.1V234.89a7.53,7.53,0,0,0-1.89-5l-4.61-4.41h33.23c10.65,0,18.4,2.82,23,8.38,3.4,4.08,5.08,9.57,5.17,16.78a21.94,21.94,0,0,1-10.36,18.92,41.67,41.67,0,0,1,4.64,7.64c2.56,5.86,4,8.74,9,10l4.82,1.22-3.81,3.21c-.27.25-7.08,5.93-14.33,6.29h-.84" transform="translate(-26.21 -22.9)"/><path class="cls-6" d="M382.78,285.72c-4.4-10-4.63-10.2-7.92-14.06h-4.4v15a10.42,10.42,0,0,0,2.69,6.87H350.69a10.66,10.66,0,0,0,2.57-6.87V234.89a10.08,10.08,0,0,0-2.69-6.86h26.85c22.09,0,25.5,12.33,25.64,22.63a19.52,19.52,0,0,1-11.73,18.11,42.94,42.94,0,0,1,6.23,9.44c2.55,5.9,4.39,9.87,10.73,11.49,0,0-6.35,5.35-12.81,5.67-8.79.43-11.6-7.18-12.7-9.64m-12.33-44.4V258.8h3.79c7.92,0,13.06-1.71,13.06-9.54l-.13-.33c0-7.5-6.59-7.61-13.31-7.61Z" transform="translate(-26.21 -22.9)"/><path class="cls-3" d="M410.8,296.1l3.94-4.29a8.44,8.44,0,0,0,1.89-5.13V234.88a8,8,0,0,0-2-5.08l-4.37-4.37,6.21,0h27.84l-3.55,4.21A9.29,9.29,0,0,0,439,235v51.68a8.35,8.35,0,0,0,1.76,5.14l3.9,4.28Z" transform="translate(-26.21 -22.9)"/><path class="cls-6" d="M419.19,286.68V234.89a10.41,10.41,0,0,0-2.67-6.86h22.32a11.8,11.8,0,0,0-2.43,7v51.68a11,11,0,0,0,2.43,6.87h-22.2a11,11,0,0,0,2.55-6.87" transform="translate(-26.21 -22.9)"/><path class="cls-3" d="M444,296.1l4-4.29a8.51,8.51,0,0,0,1.89-5.13V234.88a7.84,7.84,0,0,0-1.94-5.05l-4.39-4.37h32.41L474,229.34c-1.71,3.43-2,5-2,5.66l.12,43.21h16.6a18.75,18.75,0,0,0,7.54-2.24l4.73-2.64-4.16,22.76Z" transform="translate(-26.21 -22.9)"/><path class="cls-6" d="M449.79,293.55a11,11,0,0,0,2.57-6.87V234.89a10.37,10.37,0,0,0-2.69-6.86h22.1c-.38.75-2.33,4.51-2.33,7l.12,45.78h19.16c4.16,0,8.78-2.57,8.78-2.57l-2.79,15.35Z" transform="translate(-26.21 -22.9)"/><path class="cls-3" d="M500.17,296.1l3.95-4.29a8.52,8.52,0,0,0,1.89-5.13V234.88a7.82,7.82,0,0,0-1.94-5.05l-4.38-4.37H532l-1.78,3.67-.11.22c-1.69,3.44-1.95,5-1.95,5.64l.11,43.21h16.6a18.62,18.62,0,0,0,7.54-2.24l4.74-2.64-4.16,22.76Z" transform="translate(-26.21 -22.9)"/><path class="cls-6" d="M506,293.55a11.06,11.06,0,0,0,2.55-6.87V234.89a10.39,10.39,0,0,0-2.68-6.86H528c-.37.75-2.32,4.51-2.32,7l.13,45.78h19.15c4.16,0,8.79-2.57,8.79-2.57l-2.8,15.35Z" transform="translate(-26.21 -22.9)"/></svg>