<svg id="Layer_1" data-name="Layer 1" xmlns="http://www.w3.org/2000/svg" viewBox="0 0 1856.67 160"><defs><style>.cls-1{fill:#43beac;}</style></defs><title>checker-pattern</title><rect class="cls-1" x="80.76" width="80" height="80"/><rect class="cls-1" x="242.27" width="80" height="80"/><rect class="cls-1" x="403.79" width="80" height="80"/><rect class="cls-1" x="565.3" width="80" height="80"/><rect class="cls-1" x="726.82" width="80" height="80"/><rect class="cls-1" x="888.33" width="80" height="80"/><rect class="cls-1" x="1049.85" width="80" height="80"/><rect class="cls-1" x="1211.36" width="80" height="80"/><rect class="cls-1" x="1372.88" width="80" height="80"/><rect class="cls-1" x="1534.39" width="80" height="80"/><rect class="cls-1" x="1695.91" width="80" height="80"/><rect class="cls-1" y="80" width="80" height="80"/><rect class="cls-1" x="161.52" y="80" width="80" height="80"/><rect class="cls-1" x="323.03" y="80" width="80" height="80"/><rect class="cls-1" x="484.55" y="80" width="80" height="80"/><rect class="cls-1" x="646.06" y="80" width="80" height="80"/><rect class="cls-1" x="807.58" y="80" width="80" height="80"/><rect class="cls-1" x="969.09" y="80" width="80" height="80"/><rect class="cls-1" x="1130.61" y="80" width="80" height="80"/><rect class="cls-1" x="1292.12" y="80" width="80" height="80"/><rect class="cls-1" x="1453.64" y="80" width="80" height="80"/><rect class="cls-1" x="1615.15" y="80" width="80" height="80"/><rect class="cls-1" x="1776.67" y="80" width="80" height="80"/></svg>