<svg id="Layer_1" data-name="Layer 1" xmlns="http://www.w3.org/2000/svg" viewBox="0 0 95.32 95.32"><defs><style>.cls-1{fill:#fff;}</style></defs><title>clock</title><path class="cls-1" d="M53.94,90.65v-3.2a3.6,3.6,0,0,0-7.2,0v3.2A40.52,40.52,0,0,1,10,53.84h3.1a3.6,3.6,0,1,0,0-7.19H10.06A40.52,40.52,0,0,1,46.74,10.06v3a3.6,3.6,0,0,0,7.2,0v-3A40.52,40.52,0,0,1,90.63,46.64H87.55a3.6,3.6,0,1,0,0,7.19h3.1a40.52,40.52,0,0,1-36.7,36.81m-3.6-88A47.66,47.66,0,1,0,98,50.35,47.66,47.66,0,0,0,50.34,2.69" transform="translate(-2.68 -2.69)"/><path class="cls-1" d="M71.77,31.28,50.46,53.6h-.12a4.08,4.08,0,0,0-.78.08L31.73,40.2a2.7,2.7,0,0,0-3.24,4.32L46.31,58a4,4,0,0,0,8.08-.34c0-.11,0-.21,0-.32L75.67,35a2.7,2.7,0,1,0-3.9-3.72" transform="translate(-2.68 -2.69)"/></svg>