<svg id="Layer_1" data-name="Layer 1" xmlns="http://www.w3.org/2000/svg" viewBox="0 0 91.17 96.73"><defs><style>.cls-1{fill:#fff;}</style></defs><title>phone</title><path class="cls-1" d="M49,91.51A19.32,19.32,0,1,1,68.31,72.19,19.32,19.32,0,0,1,49,91.51M82.45,39.12c.6.13,1.2.26,1.88.34,12.38,4.35,11.87-8.24,12.17-15.54C96.8,15.51,79.65,3,51.86,1.65S6,11.16,5.64,19.57c-.26,7.3-2.55,17,10.94,16.05,10.6.38,12-2,12.27-6.1h-.18S24,26.75,12.42,27.17c0,0,10.17-2.78,16.53-.49C29.21,21.07,30,16,51.26,17.05c21.52,1,21.39,5.59,21.1,10.93l.46,0c6.76-.26,15.91,5.43,15.91,5.43-10.86-4-16.18-2.8-16.18-2.8l-.31-.08c0,3.17.94,5.81,7.18,7.8a11.72,11.72,0,0,0-2.68,6.27c-.21,5,2.52,8.62,5.42,12.55,2.18,2.9,4.44,5.93,5.55,9.69,2.52,8.58-.38,17-4.61,18.73a2.53,2.53,0,0,1-.94.22l2.94-6.1L75,45.31V39.93c0-.47.18-.4-.25-.4H67.27c-.47,0-.18-.08-.18.4v4.37H30.58V39.54c0-.51-.91-1.6-1.34-1.6H21.73c-.47,0-.67,1.09-.67,1.6v4.75h-.27l-9.9,36.07,9.9,17.89H75.46l5.77-10.79c-.17.34-.3.72-.47,1A5.7,5.7,0,0,0,84,88.35c2.95-1.24,5.29-4.38,6.44-8.7a10.5,10.5,0,0,0,.3-1.15,26,26,0,0,0-.51-12.63c-1.28-4.31-3.8-7.68-6.06-10.67-2.65-3.58-5-6.66-4.78-10.5a9.61,9.61,0,0,1,3-5.59" transform="translate(-5.34 -1.54)"/><path class="cls-1" d="M49,63.56a8.63,8.63,0,1,0,8.63,8.63A8.63,8.63,0,0,0,49,63.56" transform="translate(-5.34 -1.54)"/><path class="cls-1" d="M53.12,61.49a2.82,2.82,0,1,0-1.61-3.65,2.82,2.82,0,0,0,1.61,3.65" transform="translate(-5.34 -1.54)"/><path class="cls-1" d="M44.86,82.89a2.82,2.82,0,1,0,1.61,3.65,2.82,2.82,0,0,0-1.61-3.65" transform="translate(-5.34 -1.54)"/><path class="cls-1" d="M63.33,74.71a2.82,2.82,0,1,0,1.61,3.65,2.82,2.82,0,0,0-1.61-3.65" transform="translate(-5.34 -1.54)"/><path class="cls-1" d="M34.65,69.67A2.82,2.82,0,1,0,33,66a2.82,2.82,0,0,0,1.61,3.65" transform="translate(-5.34 -1.54)"/><path class="cls-1" d="M53.63,82.67a2.82,2.82,0,1,0,3.72,1.44,2.83,2.83,0,0,0-3.72-1.44" transform="translate(-5.34 -1.54)"/><path class="cls-1" d="M44.35,61.71a2.82,2.82,0,1,0-3.72-1.43,2.82,2.82,0,0,0,3.72,1.43" transform="translate(-5.34 -1.54)"/><path class="cls-1" d="M34.79,75.4a2.82,2.82,0,1,0,3.72,1.44,2.82,2.82,0,0,0-3.72-1.44" transform="translate(-5.34 -1.54)"/><path class="cls-1" d="M60.91,63.83a2.82,2.82,0,1,0,3.72,1.44,2.83,2.83,0,0,0-3.72-1.44" transform="translate(-5.34 -1.54)"/></svg>