<svg id="Layer_1" data-name="Layer 1" xmlns="http://www.w3.org/2000/svg" viewBox="0 0 68.46 97.59"><defs><style>.cls-1{fill:#fff;}</style></defs><title>pin</title><path class="cls-1" d="M50.24,1.55C31.36,1.55,16,18,16,38.18a37.88,37.88,0,0,0,6.42,21.3l.9,1.35L48,97.91a2.67,2.67,0,0,0,2.25,1.24,2.84,2.84,0,0,0,2.31-1.24L76.83,61.28,78,59.53A38.25,38.25,0,0,0,84.5,38.18C84.5,18,69.11,1.55,50.24,1.55Zm0,45.19a13.3,13.3,0,1,1,13.3-13.3A13.29,13.29,0,0,1,50.24,46.74Z" transform="translate(-16.03 -1.55)"/></svg>